<svg width="1325" height="1325" fill="none" xmlns="http://www.w3.org/2000/svg"><path d="M1299.22 603.567 721.419 25.799c-33.269-33.283-87.233-33.283-120.531 0L480.919 145.797l152.186 152.187c35.372-11.954 75.928-3.932 104.113 24.267 28.358 28.372 36.308 69.274 24.051 104.775l146.7 146.685c35.501-12.242 76.432-4.32 104.771 24.066 39.61 39.606 39.61 103.781 0 143.416-39.631 39.62-103.806 39.62-143.455 0-29.784-29.812-37.157-73.595-22.05-110.291L710.416 494.097v360.008c9.649 4.781 18.766 11.147 26.802 19.184 39.606 39.605 39.606 103.781 0 143.431-39.606 39.59-103.825 39.59-143.401 0-39.606-39.665-39.606-103.84 0-143.431 9.793-9.779 21.127-17.182 33.225-22.136V487.789a100.538 100.538 0 0 1-33.225-22.136c-30-29.986-37.215-74.027-21.834-110.867L421.957 204.73l-396.2 396.158c-33.284 33.312-33.284 87.276 0 120.56L603.58 1299.23c33.269 33.28 87.219 33.28 120.531 0l575.108-575.104c33.28-33.283 33.28-87.276 0-120.559Z" fill="#F05133"/></svg>
