<svg width="2194" height="1954" fill="none" xmlns="http://www.w3.org/2000/svg"><path d="M2194 977.224c0-145.343-182.01-283.083-461.07-368.499 64.4-284.424 35.78-510.711-90.34-583.159C1613.52 8.572 1579.54.522 1542.42.522v99.728c20.57 0 37.12 4.025 50.98 11.627 60.82 34.882 87.21 167.703 66.63 338.536-4.91 42.038-12.96 86.311-22.8 131.479-87.66-21.466-183.36-38.012-283.98-48.745-60.37-82.734-122.98-157.865-186.04-223.604 145.79-135.504 282.64-209.74 375.66-209.74V.075c-122.99 0-283.98 87.653-446.76 239.703C933.322 88.622 772.327 1.864 649.345 1.864v99.727c92.572 0 229.865 73.79 375.655 208.399-62.609 65.74-125.218 140.423-184.697 223.157-101.069 10.733-196.771 27.279-284.424 49.192-10.286-44.72-17.888-88.1-23.255-129.69-21.019-170.833 4.919-303.654 65.292-338.983 13.417-8.05 30.858-11.627 51.429-11.627V2.311c-37.565 0-71.553 8.05-101.069 25.044-125.665 72.447-153.839 298.287-88.994 581.817C181.119 695.036 0 832.328 0 977.224c0 145.346 182.013 283.086 461.071 368.496-64.398 284.43-35.777 510.71 90.336 583.16 29.068 16.99 63.056 25.04 100.622 25.04 122.982 0 283.976-87.65 446.761-239.7 162.78 151.16 323.78 237.92 446.76 237.92 37.56 0 71.55-8.05 101.07-25.05 125.66-72.45 153.84-298.29 88.99-581.81 277.27-85.42 458.39-223.16 458.39-368.056Zm-582.26-298.288c-16.55 57.69-37.12 117.168-60.38 176.647-18.33-35.777-37.56-71.553-58.58-107.33-20.57-35.776-42.49-70.658-64.4-104.646 63.5 9.391 124.77 21.019 183.36 35.329Zm-204.83 476.274c-34.88 60.38-70.65 117.62-107.77 170.84-66.64 5.81-134.16 8.94-202.14 8.94-67.53 0-135.057-3.13-201.243-8.5-37.118-53.22-73.342-110.01-108.225-169.94-33.987-58.58-64.845-118.06-93.019-177.985 27.727-59.926 59.032-119.851 92.572-178.436 34.883-60.373 70.659-117.615 107.777-170.833 66.634-5.814 134.158-8.944 202.138-8.944 67.53 0 135.06 3.13 201.24 8.497 37.12 53.218 73.35 110.013 108.23 169.939 33.99 58.584 64.84 118.063 93.02 177.988-28.18 59.924-59.03 119.854-92.58 178.434Zm144.45-58.13a1918.154 1918.154 0 0 1 61.72 177.98c-58.59 14.31-120.3 26.39-184.25 35.78 21.91-34.43 43.82-69.76 64.4-105.99 20.57-35.77 39.8-72 58.13-107.77Zm-453.47 477.17c-41.59-42.94-83.18-90.79-124.319-143.11 40.249 1.79 81.389 3.13 122.979 3.13 42.04 0 83.63-.89 124.33-3.13a1746.499 1746.499 0 0 1-122.99 143.11Zm-332.718-263.41c-63.503-9.39-124.771-21.02-183.355-35.33 16.547-57.69 37.118-117.17 60.373-176.65 18.336 35.78 37.565 71.56 58.584 107.33 21.019 35.78 42.485 70.66 64.398 104.65Zm330.488-930.638c41.59 42.931 83.18 90.783 124.32 143.106-40.25-1.789-81.39-3.13-122.98-3.13-42.04 0-83.63.894-124.324 3.13a1747.099 1747.099 0 0 1 122.984-143.106ZM764.725 643.607c-21.913 34.435-43.826 69.764-64.398 105.988-20.572 35.777-39.801 71.553-58.137 107.33a1916.675 1916.675 0 0 1-61.715-177.989c58.585-13.863 120.299-25.938 184.25-35.329ZM360.002 1203.51C201.691 1135.98 99.28 1047.44 99.28 977.224c0-70.212 102.411-159.206 260.722-226.287 38.46-16.547 80.497-31.305 123.877-45.168 25.49 87.652 59.031 178.883 100.621 272.349-41.143 93.022-74.236 183.802-99.28 271.012-44.273-13.87-86.311-29.07-125.218-45.62ZM600.6 1842.57c-60.82-34.88-87.206-167.7-66.634-338.54 4.919-42.03 12.969-86.31 22.807-131.48 87.653 21.47 183.356 38.02 283.977 48.75 60.373 82.73 122.982 157.86 186.04 223.6-145.791 135.51-282.637 209.74-375.656 209.74-20.124-.44-37.118-4.47-50.534-12.07Zm1060.78-340.77c21.01 170.83-4.92 303.65-65.3 338.98-13.41 8.05-30.85 11.63-51.43 11.63-92.57 0-229.86-73.79-375.65-208.4 62.61-65.74 125.22-140.42 184.7-223.16 101.07-10.73 196.77-27.28 284.42-49.19 10.29 45.17 18.34 88.55 23.26 130.14Zm172.17-298.29c-38.46 16.55-80.5 31.31-123.88 45.17-25.49-87.65-59.03-178.88-100.62-272.351 41.15-93.019 74.24-183.802 99.28-271.008 44.28 13.864 86.31 29.069 125.67 45.616 158.31 67.528 260.72 156.075 260.72 226.287-.45 70.216-102.86 159.206-261.17 226.286Z" fill="#61DAFB"/><path d="M1096.55 1181.6c112.88 0 204.38-91.5 204.38-204.376 0-112.873-91.5-204.374-204.38-204.374-112.87 0-204.371 91.501-204.371 204.374 0 112.876 91.501 204.376 204.371 204.376Z" fill="#61DAFB"/></svg>
